HIERARCHY
ROOT SpineBase
{
  OFFSET 0.000000 0.000000 0.000000
  CHANNELS 6 Xposition Yposition Zposition Zrotation Xrotation Yrotation
  JOINT SpineMid
  {
    OFFSET 0.000000 24.858331 0.000000
    CHANNELS 3 Zrotation Xrotation Yrotation
    JOINT SpineShoulder
    {
      OFFSET 0.645158 18.903549 -0.210001
      CHANNELS 3 Zrotation Xrotation Yrotation
      JOINT Neck
      {
        OFFSET 0.519115 6.385482 -0.159935
        CHANNELS 3 Zrotation Xrotation Yrotation
        JOINT Head
        {
          OFFSET 3.909327 -2.655436 14.010687
          CHANNELS 3 Zrotation Xrotation Yrotation
          End Site
          {
            OFFSET 0 0 0
          }
        }
      }
      JOINT ShoulderLeft
      {
        OFFSET -8.597977 13.159497 -7.921167
        CHANNELS 3 Zrotation Xrotation Yrotation
        JOINT ElbowLeft
        {
          OFFSET 16.549267 -8.590490 11.846138
          CHANNELS 3 Zrotation Xrotation Yrotation
          JOINT WristLeft
          {
            OFFSET 8.576939 20.170064 -19.742572
            CHANNELS 3 Zrotation Xrotation Yrotation
            JOINT HandLeft
            {
              OFFSET 2.503354 5.927901 -13.717012
              CHANNELS 3 Zrotation Xrotation Yrotation
              JOINT HandTipLeft
              {
                OFFSET 3.833297 4.169829 -5.400324
                CHANNELS 3 Zrotation Xrotation Yrotation
                End Site
                {
                  OFFSET 0 0 0
                }
              }
              JOINT ThumbLeft
              {
                OFFSET 3.630932 7.134810 4.324061
                CHANNELS 3 Zrotation Xrotation Yrotation
                End Site
                {
                  OFFSET 0 0 0
                }
              }
            }
          }
        }
      }
      JOINT ShoulderRight
      {
        OFFSET -1.676139 -1.574550 -27.388546
        CHANNELS 3 Zrotation Xrotation Yrotation
        JOINT ElbowRight
        {
          OFFSET 18.714457 -7.687377 21.493175
          CHANNELS 3 Zrotation Xrotation Yrotation
          JOINT WristRight
          {
            OFFSET -7.027706 17.546183 15.291825
            CHANNELS 3 Zrotation Xrotation Yrotation
            JOINT HandRight
            {
              OFFSET -0.051664 2.583170 3.174738
              CHANNELS 3 Zrotation Xrotation Yrotation
              JOINT HandTipRight
              {
                OFFSET 1.070131 2.907880 4.819026
                CHANNELS 3 Zrotation Xrotation Yrotation
                End Site
                {
                  OFFSET 0 0 0
                }
              }
              JOINT ThumbRight
              {
                OFFSET -1.593811 2.212790 -3.525673
                CHANNELS 3 Zrotation Xrotation Yrotation
                End Site
                {
                  OFFSET 0 0 0
                }
              }
            }
          }
        }
      }
    }
  }
  JOINT HipLeft
  {
    OFFSET -0.383328 2.171545 4.197830
    CHANNELS 3 Zrotation Xrotation Yrotation
    JOINT KneeLeft
    {
      OFFSET -20.294331 -12.378300 -22.505923
      CHANNELS 3 Zrotation Xrotation Yrotation
      JOINT AnkleLeft
      {
        OFFSET -23.823629 17.150067 -10.566456
        CHANNELS 3 Zrotation Xrotation Yrotation
        JOINT FootLeft
        {
          OFFSET 11.690105 5.146779 -9.676060
          CHANNELS 3 Zrotation Xrotation Yrotation
          End Site
          {
            OFFSET 0 0 0
          }
        }
      }
    }
  }
  JOINT HipRight
  {
    OFFSET 6.378429 1.196977 -5.515384
    CHANNELS 3 Zrotation Xrotation Yrotation
    JOINT KneeRight
    {
      OFFSET -27.774998 -23.423319 -11.979170
      CHANNELS 3 Zrotation Xrotation Yrotation
      JOINT AnkleRight
      {
        OFFSET -27.487150 13.655615 -4.022143
        CHANNELS 3 Zrotation Xrotation Yrotation
        JOINT FootRight
        {
          OFFSET 3.386938 14.208878 -4.055632
          CHANNELS 3 Zrotation Xrotation Yrotation
          End Site
          {
            OFFSET 0 0 0
          }
        }
      }
    }
  }
}
MOTION
Frames: 10
Frame Time: 0.033333
-288.881872 23.046116 67.942373 -0.000000 0.000000 55.156677 -0.000000 0.000000 -55.156677 -0.000000 0.000000 0.000000 -0.000000 0.000000 0.000000 0.000000 0.000000 0.000000 -0.000000 0.000000 0.000000 -0.000000 0.000000 0.000000 -0.000000 0.000000 0.000000 -0.000000 0.000000 0.000000 0.000000 0.000000 0.000000 0.000000 0.000000 0.000000 -0.000000 0.000000 0.000000 -0.000000 0.000000 0.000000 -0.000000 0.000000 0.000000 -0.000000 0.000000 0.000000 0.000000 0.000000 0.000000 0.000000 0.000000 0.000000 -0.000000 0.000000 -55.156677 -0.000000 0.000000 0.000000 -0.000000 0.000000 0.000000 0.000000 0.000000 0.000000 -0.000000 0.000000 -55.156677 -0.000000 0.000000 0.000000 -0.000000 0.000000 0.000000 0.000000 0.000000 0.000000
-288.854285 23.012718 67.962389 0.036170 -0.052933 55.086639 0.022705 0.059956 -55.086634 -0.000000 0.000000 0.000000 -0.000000 0.000000 0.000000 0.000000 0.000000 0.000000 -0.000000 0.000000 0.000000 0.100728 1.142870 -0.392388 0.076706 0.781141 -0.014464 -0.299047 -1.363731 -0.284296 0.000000 0.000000 0.000000 0.000000 0.000000 0.000000 -0.000000 0.000000 0.000000 -0.000000 0.000000 0.000000 -0.560723 -0.388433 0.682372 -0.248420 0.466671 0.637362 0.000000 0.000000 0.000000 0.000000 0.000000 0.000000 0.022705 0.059956 -55.086634 -0.000000 0.000000 0.000000 -0.000000 0.000000 0.000000 0.000000 0.000000 0.000000 0.022705 0.059956 -55.086634 -0.000000 0.000000 0.000000 -0.000000 0.000000 0.000000 0.000000 0.000000 0.000000
-288.819882 22.972573 67.987020 0.081595 -0.110690 55.037812 0.043957 0.130299 -55.037783 -0.000000 0.000000 0.000000 -0.000000 0.000000 0.000000 0.000000 0.000000 0.000000 -0.000000 0.000000 0.000000 0.185281 1.983197 -0.677184 0.131890 1.336116 -0.004543 -0.555855 -2.251905 -0.665954 0.000000 0.000000 0.000000 0.000000 0.000000 0.000000 -0.000000 0.000000 0.000000 -0.000000 0.000000 0.000000 -0.985674 -0.694208 1.200679 -0.422249 0.824353 1.108366 0.000000 0.000000 0.000000 0.000000 0.000000 0.000000 0.043957 0.130299 -55.037783 -0.000000 0.000000 0.000000 -0.000000 0.000000 0.000000 0.000000 0.000000 0.000000 0.043957 0.130299 -55.037783 -0.000000 0.000000 0.000000 -0.000000 0.000000 0.000000 0.000000 0.000000 0.000000
-288.778663 22.925684 68.016268 0.136222 -0.173228 55.009986 0.063803 0.210935 -55.009897 -0.000000 0.000000 0.000000 -0.000000 0.000000 0.000000 0.000000 0.000000 0.000000 -0.000000 0.000000 0.000000 0.248896 2.520180 -0.852819 0.169972 1.686458 0.025301 -0.775750 -2.694355 -1.121668 0.000000 0.000000 0.000000 0.000000 0.000000 0.000000 -0.000000 0.000000 0.000000 -0.000000 0.000000 0.000000 -1.281510 -0.916697 1.562078 -0.558699 1.082426 1.467250 0.000000 0.000000 0.000000 0.000000 0.000000 0.000000 0.063803 0.210935 -55.009897 -0.000000 0.000000 0.000000 -0.000000 0.000000 0.000000 0.000000 0.000000 0.000000 0.063803 0.210935 -55.009897 -0.000000 0.000000 0.000000 -0.000000 0.000000 0.000000 0.000000 0.000000 0.000000
-288.730628 22.872048 68.050132 0.199988 -0.240497 55.003022 0.082311 0.301760 -55.002819 -0.000000 0.000000 0.000000 -0.000000 0.000000 0.000000 0.000000 0.000000 0.000000 -0.000000 0.000000 0.000000 0.288568 2.753676 -0.918224 0.194119 1.845074 0.072800 -0.960679 -2.711546 -1.633048 0.000000 0.000000 0.000000 0.000000 0.000000 0.000000 -0.000000 0.000000 0.000000 -0.000000 0.000000 0.000000 -1.452849 -1.055618 1.771529 -0.681690 1.246797 1.748999 0.000000 0.000000 0.000000 0.000000 0.000000 0.000000 0.082311 0.301760 -55.002819 -0.000000 0.000000 0.000000 -0.000000 0.000000 0.000000 0.000000 0.000000 0.000000 0.082311 0.301760 -55.002819 -0.000000 0.000000 0.000000 -0.000000 0.000000 0.000000 0.000000 0.000000 0.000000
-288.675775 22.811668 68.088611 0.272824 -0.312448 55.016847 0.099574 0.402667 -55.016453 -0.000000 0.000000 0.000000 -0.000000 0.000000 0.000000 0.000000 0.000000 0.000000 -0.000000 0.000000 0.000000 0.303063 2.683661 -0.872820 0.206124 1.815051 0.138144 -1.109673 -2.312261 -2.187302 0.000000 0.000000 0.000000 0.000000 0.000000 0.000000 -0.000000 0.000000 0.000000 -0.000000 0.000000 0.000000 -1.502280 -1.110828 1.831790 -0.805725 1.320891 1.974806 0.000000 0.000000 0.000000 0.000000 0.000000 0.000000 0.099574 0.402667 -55.016453 -0.000000 0.000000 0.000000 -0.000000 0.000000 0.000000 0.000000 0.000000 0.000000 0.099574 0.402667 -55.016453 -0.000000 0.000000 0.000000 -0.000000 0.000000 0.000000 0.000000 0.000000 0.000000
-288.600926 22.725434 68.146473 0.384298 -0.411649 55.115437 0.117885 0.550673 -55.114623 -0.000000 0.000000 0.000000 -0.000000 0.000000 0.000000 0.000000 0.000000 0.000000 -0.000000 0.000000 0.000000 0.279435 2.804351 -0.949781 0.253758 2.056375 0.118227 -2.175713 -0.166359 -5.967935 0.000000 0.000000 0.000000 0.000000 0.000000 0.000000 -0.000000 0.000000 0.000000 -0.000000 0.000000 0.000000 -1.280657 -0.705648 1.564095 -0.642590 1.255321 1.458299 0.000000 0.000000 0.000000 0.000000 0.000000 0.000000 0.117885 0.550673 -55.114623 -0.000000 0.000000 0.000000 -0.000000 0.000000 0.000000 0.000000 0.000000 0.000000 0.117885 0.550673 -55.114623 -0.000000 0.000000 0.000000 -0.000000 0.000000 0.000000 0.000000 0.000000 0.000000
-288.518603 22.685439 68.197115 0.497380 -0.493447 54.814358 0.116677 0.690839 -54.812919 -0.000000 0.000000 0.000000 -0.000000 0.000000 0.000000 0.000000 0.000000 0.000000 -0.000000 0.000000 0.000000 0.219746 2.034046 -0.665950 0.292151 1.510766 0.368393 -1.493375 0.542609 -4.955990 0.000000 0.000000 0.000000 0.000000 0.000000 0.000000 -0.000000 0.000000 0.000000 -0.000000 0.000000 0.000000 -0.885439 -0.707886 1.076917 -1.071974 1.015541 2.077243 0.000000 0.000000 0.000000 0.000000 0.000000 0.000000 0.116677 0.690839 -54.812919 -0.000000 0.000000 0.000000 -0.000000 0.000000 0.000000 0.000000 0.000000 0.000000 0.116677 0.690839 -54.812919 -0.000000 0.000000 0.000000 -0.000000 0.000000 0.000000 0.000000 0.000000 0.000000
-288.445926 22.589549 68.248385 0.584258 -0.577107 55.089317 0.138871 0.809391 -55.087355 -0.000000 0.000000 0.000000 -0.000000 0.000000 0.000000 0.000000 0.000000 0.000000 -0.000000 0.000000 0.000000 0.172767 0.777990 -0.164093 0.251784 0.690993 0.540793 -1.650026 3.100588 -6.417078 0.000000 0.000000 0.000000 0.000000 0.000000 0.000000 -0.000000 0.000000 0.000000 -0.000000 0.000000 0.000000 -0.854360 -0.554315 1.041132 -1.351625 1.534160 2.270711 0.000000 0.000000 0.000000 0.000000 0.000000 0.000000 0.341061 1.662160 -55.102307 0.583769 -0.653685 0.013921 -0.000000 0.000000 0.000000 0.000000 0.000000 0.000000 0.056135 1.616553 -55.189313 0.709952 -0.392845 0.106143 -0.000000 0.000000 0.000000 0.000000 0.000000 0.000000
-288.385934 22.469983 68.295009 0.640601 -0.648463 55.616482 0.173378 0.894874 -55.614211 -0.000000 0.000000 0.000000 -0.000000 0.000000 0.000000 0.000000 0.000000 0.000000 -0.000000 0.000000 0.000000 0.144401 -0.957869 0.545696 0.111788 -0.699815 0.722708 -0.226197 1.661992 -1.263343 0.000000 0.000000 0.000000 0.000000 0.000000 0.000000 -0.000000 0.000000 0.000000 -0.000000 0.000000 0.000000 -0.812933 -0.479840 0.991335 -1.450512 1.131227 2.527827 0.000000 0.000000 0.000000 0.000000 0.000000 0.000000 0.363958 1.954075 -55.467199 0.764581 -0.757400 -0.146696 -0.000000 0.000000 0.000000 0.000000 0.000000 0.000000 0.175032 1.919674 -55.867262 0.847368 -0.576376 0.257273 -0.000000 0.000000 0.000000 0.000000 0.000000 0.000000
